# File created by Blade
# Date/Time:  Wed Sep 24 19:53:44 2014
# Frame Rate: 120.000 fps
#------------------------------------------------------
:FULLY-SPECIFIED
:DEGREES
4312
root -5.933166 32.831406 -4.066009 9.710340 -4.133445 -2.250934
Spine -8.886344 12.536894 1.566902
Head -16.259420 -4.411885 11.226091
LeftShoulder -18.088563 22.921715 25.085147
LeftArm 13.664002 -27.996889 -33.185193
LeftForeArm 14.364559 -0.000000 15.262439
LeftHand -33.718056 0.000000 -1.224303
LeftHandThumb1 -26.253704 0.000000 33.147579
RightShoulder -21.299634 12.326130 -38.727007
RightArm -12.052038 5.478616 32.575614
RightForeArm -36.903271 -0.000000 16.824649
RightHand -15.128205 -0.000000 14.278027
RightHandThumb1 -24.326973 -0.000000 -32.862282
LeftUpLeg -2.145343 5.223154 4.948897
LeftLeg -1.115352 -0.000000 0.000000
LeftFoot -14.450297 11.837343 -20.039252
LeftToeBase 12.196304 -0.000000 -0.000000
RightUpLeg -5.318759 -8.210083 -2.313420
RightLeg 0.333211 -0.000000 -0.000000
RightFoot -6.983727 2.433117 -13.665549
RightToeBase -2.530698 -0.000000 0.000000
4313
root -5.926576 32.829933 -4.062377 9.646760 -4.226572 -2.230574
Spine -8.820682 12.530039 1.567665
Head -16.408645 -4.340812 11.235635
LeftShoulder -18.128539 22.960739 25.041072
LeftArm 13.640038 -28.029114 -33.242502
LeftForeArm 14.543010 -0.000000 15.265519
LeftHand -33.807705 -0.000000 -1.405363
LeftHandThumb1 -26.253704 0.000000 33.147579
RightShoulder -21.328021 12.264930 -38.684570
RightArm -11.939077 5.414861 32.651052
RightForeArm -36.833025 -0.000000 16.769126
RightHand -15.157859 -0.000000 14.083127
RightHandThumb1 -24.326973 -0.000000 -32.862282
LeftUpLeg -2.084929 5.301532 4.906343
LeftLeg -1.060286 -0.000000 0.000000
LeftFoot -14.535813 11.855227 -19.937122
LeftToeBase 12.390834 -0.000000 -0.000000
RightUpLeg -5.283549 -8.153958 -2.367945
RightLeg 0.377025 -0.000000 -0.000000
RightFoot -7.033090 2.458613 -13.680306
RightToeBase -2.548542 -0.000000 0.000000
4314
root -5.921087 32.828315 -4.060064 9.588455 -4.306964 -2.219122
Spine -8.763654 12.512197 1.579231
Head -16.517555 -4.270840 11.243082
LeftShoulder -18.169921 22.994538 24.996640
LeftArm 13.632160 -27.983986 -33.280689
LeftForeArm 14.450909 -0.000000 15.216633
LeftHand -33.670003 0.000000 -1.562853
LeftHandThumb1 -26.253704 0.000000 33.147579
RightShoulder -21.329682 12.311563 -38.654486
RightArm -11.921191 5.408301 32.662438
RightForeArm -36.818424 -0.000000 16.751492
RightHand -15.160828 -0.000000 14.319653
RightHandThumb1 -24.326973 -0.000000 -32.862282
LeftUpLeg -2.029495 5.379852 4.878797
LeftLeg -1.015745 -0.000000 0.000000
LeftFoot -14.563496 11.813221 -20.100059
LeftToeBase 12.232541 -0.000000 -0.000000
RightUpLeg -5.251317 -8.083007 -2.407224
RightLeg 0.416102 -0.000000 -0.000000
RightFoot -7.068993 2.449960 -13.720604
RightToeBase -2.564787 -0.000000 0.000000
4315
root -5.915099 32.826665 -4.059083 9.544740 -4.367878 -2.204119
Spine -8.729186 12.498074 1.584312
Head -16.619970 -4.245808 11.245143
LeftShoulder -18.193473 23.026175 24.963086
LeftArm 13.632403 -27.934094 -33.312080
LeftForeArm 14.495776 -0.000000 15.167872
LeftHand -33.764582 -0.000000 -1.541158
LeftHandThumb1 -26.253704 0.000000 33.147579
RightShoulder -21.321064 12.324905 -38.653951
RightArm -11.944978 5.449065 32.703181
RightForeArm -36.896567 0.000000 16.796512
RightHand -15.161977 -0.000000 14.214053
RightHandThumb1 -24.326973 -0.000000 -32.862282
LeftUpLeg -1.998586 5.464038 4.843141
LeftLeg -0.968695 -0.000000 0.000000
LeftFoot -14.617051 11.807732 -19.951423
LeftToeBase 12.417459 -0.000000 -0.000000
RightUpLeg -5.233114 -8.014099 -2.447571
RightLeg 0.451849 -0.000000 -0.000000
RightFoot -7.101457 2.421971 -13.765936
RightToeBase -2.544258 -0.000000 0.000000
4316
root -5.909852 32.824920 -4.058342 9.500002 -4.420228 -2.190501
Spine -8.680177 12.486032 1.595082
Head -16.741039 -4.235888 11.257832
LeftShoulder -18.225680 23.031079 24.909598
LeftArm 13.627236 -27.871286 -33.307227
LeftForeArm 14.438420 -0.000000 15.104771
LeftHand -33.632995 -0.000000 -1.682819
LeftHandThumb1 -26.253704 0.000000 33.147579
RightShoulder -21.365559 12.331277 -38.633723
RightArm -11.862193 5.451790 32.712183
RightForeArm -36.807286 0.000000 16.712699
RightHand -15.010950 -0.000000 14.416357
RightHandThumb1 -24.326973 -0.000000 -32.862282
LeftUpLeg -1.967262 5.530045 4.818534
LeftLeg -0.919449 -0.000000 0.000000
LeftFoot -14.648235 11.730221 -20.118457
LeftToeBase 12.286603 -0.000000 -0.000000
RightUpLeg -5.209129 -7.926848 -2.488307
RightLeg 0.481926 -0.000000 -0.000000
RightFoot -7.127275 2.382778 -13.768650
RightToeBase -2.547763 -0.000000 0.000000
4317
root -5.904940 32.823911 -4.056925 9.457207 -4.461690 -2.181649
Spine -8.640421 12.478885 1.611265
Head -16.883772 -4.215089 11.242757
LeftShoulder -18.252891 23.024004 24.875614
LeftArm 13.614072 -27.923855 -33.372518
LeftForeArm 14.434745 0.000000 15.150295
LeftHand -33.652113 -0.000000 -1.662330
LeftHandThumb1 -26.253704 0.000000 33.147579
RightShoulder -21.406838 12.331977 -38.632386
RightArm -11.828108 5.265997 32.761293
RightForeArm -36.642745 0.000000 16.768986
RightHand -15.189577 0.000000 14.256323
RightHandThumb1 -24.326973 -0.000000 -32.862282
LeftUpLeg -1.932197 5.589736 4.794819
LeftLeg -0.889217 -0.000000 0.000000
LeftFoot -14.660513 11.763737 -19.871537
LeftToeBase 12.374902 -0.000000 -0.000000
RightUpLeg -5.191908 -7.858756 -2.521676
RightLeg 0.529297 -0.000000 -0.000000
RightFoot -7.153683 2.358714 -13.784519
RightToeBase -2.531154 -0.000000 0.000000
4318
root -5.900273 32.822443 -4.056089 9.425012 -4.485666 -2.166481
Spine -8.624202 12.449139 1.626038
Head -16.983620 -4.155159 11.182637
LeftShoulder -18.292797 23.070555 24.831262
LeftArm 13.681393 -27.812809 -33.397862
LeftForeArm 14.328343 -0.000000 15.137707
LeftHand -34.053748 0.000000 -1.671600
LeftHandThumb1 -26.253704 0.000000 33.147579
RightShoulder -21.420743 12.350647 -38.593045
RightArm -11.754977 5.177547 32.739195
RightForeArm -36.505883 -0.000000 16.757470
RightHand -15.460190 0.000000 14.320615
RightHandThumb1 -24.326973 -0.000000 -32.862282
LeftUpLeg -1.910672 5.616035 4.772931
LeftLeg -0.857932 -0.000000 0.000000
LeftFoot -14.630833 11.740617 -19.973761
LeftToeBase 11.810851 -0.000000 -0.000000
RightUpLeg -5.176073 -7.794337 -2.557154
RightLeg 0.557398 -0.000000 -0.000000
RightFoot -7.168390 2.322389 -13.767525
RightToeBase -2.568493 -0.000000 0.000000
4319
root -5.895335 32.821066 -4.054598 9.396227 -4.499800 -2.154822
Spine -8.619132 12.432706 1.635701
Head -17.047293 -4.142912 11.179829
LeftShoulder -18.299228 23.070775 24.790578
LeftArm 13.687599 -27.801131 -33.385310
LeftForeArm 14.380940 -0.000000 15.054990
LeftHand -33.732954 -0.000000 -1.699568
LeftHandThumb1 -26.253704 0.000000 33.147579
RightShoulder -21.437299 12.334213 -38.598380
RightArm -11.733410 5.201028 32.763003
RightForeArm -36.517335 -0.000000 16.755734
RightHand -15.509175 -0.000000 14.355009
RightHandThumb1 -24.326973 -0.000000 -32.862282
LeftUpLeg -1.886685 5.624196 4.755421
LeftLeg -0.840176 -0.000000 0.000000
LeftFoot -14.655066 11.713951 -19.989912
LeftToeBase 12.091074 -0.000000 -0.000000
RightUpLeg -5.162435 -7.747486 -2.588016
RightLeg 0.589782 -0.000000 -0.000000
RightFoot -7.196436 2.287702 -13.772533
RightToeBase -2.569194 -0.000000 0.000000
4320
root -5.891078 32.819890 -4.054615 9.376619 -4.507175 -2.146659
Spine -8.611741 12.428300 1.644826
Head -17.150642 -4.143017 11.183865
LeftShoulder -18.336125 23.090512 24.749863
LeftArm 13.787326 -27.839676 -33.432629
LeftForeArm 14.495517 -0.000000 14.976174
LeftHand -33.618922 -0.000000 -1.818230
LeftHandThumb1 -26.253704 0.000000 33.147579
RightShoulder -21.489766 12.313874 -38.583731
RightArm -11.684928 5.229331 32.748550
RightForeArm -36.528614 -0.000000 16.752652
RightHand -15.404994 0.000000 14.418032
RightHandThumb1 -24.326973 -0.000000 -32.862282
LeftUpLeg -1.877235 5.613062 4.743380
LeftLeg -0.812586 -0.000000 0.000000
LeftFoot -14.685607 11.689442 -20.022250
LeftToeBase 12.123976 -0.000000 -0.000000
RightUpLeg -5.158180 -7.676667 -2.616252
RightLeg 0.621905 -0.000000 -0.000000
RightFoot -7.210507 2.240274 -13.756510
RightToeBase -2.581815 -0.000000 0.000000
4321
root -5.887152 32.818725 -4.052959 9.344829 -4.510936 -2.138661
Spine -8.595701 12.409926 1.668257
Head -17.216057 -4.166185 11.163853
LeftShoulder -18.365146 23.111997 24.683577
LeftArm 13.825136 -27.850353 -33.429226
LeftForeArm 14.582919 -0.000000 14.958383
LeftHand -33.491898 -0.000000 -2.009629
LeftHandThumb1 -26.253704 0.000000 33.147579
RightShoulder -21.534664 12.276124 -38.582352
RightArm -11.602478 5.229225 32.762231
RightForeArm -36.473754 0.000000 16.754311
RightHand -15.399575 -0.000000 14.481456
RightHandThumb1 -24.326973 -0.000000 -32.862282
LeftUpLeg -1.845867 5.628007 4.733003
LeftLeg -0.803876 -0.000000 0.000000
LeftFoot -14.736753 11.651199 -20.107226
LeftToeBase 12.248319 -0.000000 -0.000000
RightUpLeg -5.134812 -7.618712 -2.641880
RightLeg 0.644494 -0.000000 -0.000000
RightFoot -7.223710 2.200710 -13.742043
RightToeBase -2.582434 -0.000000 0.000000
4322
root -5.882363 32.817442 -4.052207 9.322208 -4.503178 -2.117538
Spine -8.606846 12.374320 1.677253
Head -17.272768 -4.152953 11.111152
LeftShoulder -18.393858 23.181203 24.608150
LeftArm 13.845834 -27.764083 -33.388562
LeftForeArm 14.516255 -0.000000 14.997568
LeftHand -33.538219 -0.000000 -1.873922
LeftHandThumb1 -26.253704 0.000000 33.147579
RightShoulder -21.537518 12.271213 -38.572986
RightArm -11.565399 5.230324 32.743642
RightForeArm -36.454321 -0.000000 16.746233
RightHand -15.295550 -0.000000 14.649837
RightHandThumb1 -24.326973 -0.000000 -32.862282
LeftUpLeg -1.832216 5.625734 4.707056
LeftLeg -0.789339 -0.000000 0.000000
LeftFoot -14.745244 11.636405 -20.091240
LeftToeBase 12.244765 -0.000000 -0.000000
RightUpLeg -5.121400 -7.562624 -2.679583
RightLeg 0.669069 -0.000000 -0.000000
RightFoot -7.235545 2.132517 -13.759736
RightToeBase -2.606736 -0.000000 0.000000
4323
root -5.878596 32.816259 -4.051473 9.296132 -4.490429 -2.101682
Spine -8.599036 12.331616 1.691603
Head -17.316523 -4.127334 11.099844
LeftShoulder -18.443941 23.212537 24.530706
LeftArm 13.883380 -27.711867 -33.344034
LeftForeArm 14.465479 0.000000 14.995500
LeftHand -33.500758 -0.000000 -1.877339
LeftHandThumb1 -26.253704 0.000000 33.147579
RightShoulder -21.548424 12.268248 -38.577430
RightArm -11.532817 5.236117 32.750774
RightForeArm -36.447641 -0.000000 16.771225
RightHand -15.262113 0.000000 14.627263
RightHandThumb1 -24.326973 -0.000000 -32.862282
LeftUpLeg -1.815258 5.641332 4.684640
LeftLeg -0.777420 -0.000000 0.000000
LeftFoot -14.764259 11.633010 -19.921895
LeftToeBase 12.414567 -0.000000 -0.000000
RightUpLeg -5.101456 -7.512758 -2.707411
RightLeg 0.688083 -0.000000 -0.000000
RightFoot -7.256200 2.053262 -13.788363
RightToeBase -2.556988 -0.000000 0.000000
